<?xml version="1.0" encoding="utf-8"?>
<!-- Generator: Adobe Illustrator 27.5.0, SVG Export Plug-In . SVG Version: 6.00 Build 0)  -->
<svg version="1.1" xmlns="http://www.w3.org/2000/svg" xmlns:xlink="http://www.w3.org/1999/xlink" x="0px" y="0px"
	 viewBox="0 0 1119.973 1122" style="enable-background:new 0 0 1119.973 1122;" xml:space="preserve">

<g id="OBJECT">
	<g>
		<path style="fill:#FFFFFF;" d="M784.236,296.132c0,0-181.211,30.541-330.863-54.974c0,0-9.162,63.119-89.587,111.984
			c-80.425,48.866-127.255,43.776-127.255,43.776s2.036,91.624,34.613,183.247c32.577,91.624,187.319,305.412,474.406,297.268
			c0,0,119.111-94.678,128.273-210.734c9.162-116.056,9.162-122.165-4.072-163.905C856.517,461.054,784.236,296.132,784.236,296.132
			z"/>
		<g>
			<path style="fill:#2B2A2A;" d="M711.83,840.066c-82.131-2.827-162.353-25.962-232.649-68.795
				c-74.697-45.515-135.085-112.696-173.535-191.178c-21.966-44.835-36.778-92.95-43.628-142.406
				c-0.245-1.77-3.353-1.883-3.104,0.082c11.331,89.487,48.965,174.95,107.055,243.956
				c54.518,64.762,126.935,113.419,207.029,140.611c44.893,15.241,92.354,24.057,139.805,24.74
				C717.866,847.148,716.321,840.22,711.83,840.066z"/>
			<path style="fill:#2B2A2A;" d="M463.432,292c-21.951,34.911-51.148,64.804-85.385,87.787
				c-17.17,11.526-35.515,21.235-54.665,29.037c-19.07,7.769-38.68,12.632-58.634,17.445c-1.42,0.343-0.565,2.505,0.696,2.377
				c40.571-4.123,80.938-21.877,114.74-44.081c35.111-23.064,65.166-53.451,87.646-88.942
				C469.573,292.871,465.16,289.252,463.432,292z"/>
			<path style="fill:#2B2A2A;" d="M817.67,456.695c-14.508-45.7-33.676-89.975-55.251-132.757c0.761-2.115-1.19-5.482-3.817-5.085
				c-47.102,7.114-93.578,10.142-141.073,4.512c-47.13-5.587-92.638-18.328-136.466-36.383c-2.915-1.201-4.353,2.735-1.636,4.028
				c43.506,20.707,90.967,33.519,138.769,39.11c46.621,5.453,95.742,5.26,141.824-4.531
				c34.401,74.551,65.807,151.602,74.141,234.025c6.99,69.126-4.021,140.632-38.734,201.469
				c-9.38,16.439-20.549,31.913-33.359,45.853c-13.015,14.164-27.838,25.364-42.966,37.078c-3.068,2.375,0.683,6.829,3.83,5.107
				c29.166-15.961,53.34-44.138,70.98-71.814c18.253-28.638,31.07-60.417,38.988-93.396
				C851.02,608.444,840.909,529.893,817.67,456.695z"/>
			<path style="fill:#2B2A2A;" d="M565.235,392.354c-28.567-33.418-57.81-66.556-88.027-98.493
				c-0.817-0.864-2.366-0.051-1.506,0.982c28.123,33.744,57.578,66.645,87.37,98.922
				C564.242,395.032,566.478,393.809,565.235,392.354z"/>
			<path style="fill:#2B2A2A;" d="M732.871,830.641c-9.866-58.747-24.759-117.011-43.857-173.835
				c-1.425,0.43-2.864,0.803-4.32,1.121c8.84,26.949,16.794,54.176,23.821,81.617c7.733,30.197,14.025,60.643,19.926,91.24
				C728.944,833.389,733.371,833.617,732.871,830.641z"/>
			<path style="fill:#2B2A2A;" d="M455.881,440.406c-57.117,13.646-116.471,16.645-174.466,6.778
				c-1.033-0.176-1.091,1.301-0.152,1.467c58.319,10.302,118.231,9.039,175.69-5.754
				C458.629,442.466,457.388,440.046,455.881,440.406z"/>
			<path style="fill:#2B2A2A;" d="M757.425,321.296c-11.442,6.843-21.822,15.704-33.127,22.873
				c-11.715,7.43-23.731,14.343-36.052,20.717c-13.635,7.054-27.595,13.461-41.787,19.308c0.525,0.739,1.026,1.479,1.484,2.224
				c13.501-5.352,26.769-11.289,39.768-17.835c12.397-6.243,24.576-12.958,36.474-20.107c11.983-7.201,25.387-14.383,35.867-23.678
				C761.985,323.082,759.605,319.992,757.425,321.296z"/>
			<path style="fill:#2B2A2A;" d="M457.388,791.831C355.87,733.117,281.15,631.758,253.136,518.039
				c-7.854-31.883-11.243-64.219-12.748-96.958c-0.037-0.806-1.527-1.068-1.563-0.146c-2.279,58.179,12.441,117.908,35.626,170.966
				c23.61,54.03,57.823,103.275,100.508,143.976c24.366,23.234,51.516,43.368,80.793,59.981
				C458.519,797.429,459.945,793.31,457.388,791.831z"/>
			<path style="fill:#2B2A2A;" d="M729.62,875.319c-20.62-1.931-41.276-1.737-61.891-4.425
				c-20.965-2.733-41.749-6.847-62.178-12.292c-41.002-10.928-80.902-26.929-117.882-47.775c-0.987-0.556-1.463,0.889-0.578,1.423
				c36.549,22.062,75.505,39.298,116.664,50.757c20.816,5.796,42.024,10.199,63.427,13.167c20.273,2.812,42.13,5.885,62.591,4.177
				C732.791,880.099,732.469,875.586,729.62,875.319z"/>
			<path style="fill:#2B2A2A;" d="M446.875,261.849c-39.301,75.326-117.682,123.281-200.042,136.55
				c-1.14,0.184-0.785,1.799,0.275,1.709c85.746-7.272,161.528-62.38,205.091-134.84
				C454.306,261.763,448.832,258.099,446.875,261.849z"/>
			<path style="fill:#2B2A2A;" d="M779.092,294.146c-51.623,6.885-102.856,8.415-154.574,1.117
				c-51.789-7.308-100.26-23.68-148.969-42.067c-1.096-0.414-1.559,0.939-0.603,1.484c45.494,25.901,98.712,40.035,150.218,47.402
				c51.243,7.33,104.829,7.933,155.899-1.205C785.071,300.161,782.693,293.666,779.092,294.146z"/>
			<path style="fill:#2B2A2A;" d="M831.628,399.907c-12.599-28.862-24.656-58.29-38.937-86.368
				c-0.824-1.619-3.511-1.112-2.759,0.839c11.315,29.362,25.159,57.965,38.199,86.592
				C829.101,403.099,832.673,402.3,831.628,399.907z"/>
			<path style="fill:#2B2A2A;" d="M877.694,528.946c-6.704-36.848-19.582-72.23-37.894-104.865
				c-0.458-0.816-1.927-0.545-1.444,0.439c28.56,58.129,42.882,123.5,39.085,188.27c-3.558,60.69-23.338,120.008-56.262,171.079
				c-18.306,28.396-40.537,54.189-66.027,76.369c-3.487,3.034,1.374,9.06,4.64,6.187
				C854.832,782.819,900.385,653.655,877.694,528.946z"/>
			<path style="fill:#2B2A2A;" d="M717.207,599.484c-6.108-13.931-16.353-26.941-24.803-39.57
				c-8.943-13.365-18.236-26.498-27.743-39.467c-8.803-12.009-17.805-23.87-27.055-35.538
				c-9.175-11.574-18.232-23.709-28.602-34.296c13.647-8.463,12.778-28.046,2.82-39.154c-11.984-13.37-36.335-16.531-50.311-4.29
				c-1.233,1.08-1.147,2.434-0.427,3.49c6.007-6.571,16.431-8.671,25.083-8.415c11.269,0.334,20.879,6.215,24.157,16.539
				c5.687,9.193,3.715,20.448-2.922,29.213c-0.27,1.384-0.807,2.576-1.552,3.585c7.965,11.342,17.211,21.876,25.653,32.857
				c10.217,13.289,20.199,26.763,29.904,40.431c9.016,12.699,17.769,25.58,26.364,38.567c8.18,12.361,15.29,26.176,24.562,37.74
				c-13.457,6.213-26.936,12.376-40.404,18.564c-12.059,5.541-24.812,10.596-36.276,17.344
				c-9.242-29.057-19.131-57.912-28.866-86.805c-9.34-27.72-17.637-56.071-28.191-83.376c-0.671,0.138-1.347,0.237-2.024,0.256
				c7.596,28.183,17.697,55.868,26.55,83.656c9.342,29.326,18.531,58.714,28.386,87.873c0.434,1.283,1.798,1.846,2.926,1.717
				c0.394,0.188,0.822,0.276,1.189,0.161c13.722-4.328,27.017-11.265,40.132-17.148c13.248-5.942,26.485-11.91,39.744-17.826
				c1.442-0.643,1.57-1.967,1.022-3.075C717.332,601.882,717.763,600.752,717.207,599.484z"/>
			<path style="fill:#2B2A2A;" d="M583.59,475.994c-1.478-5.371-3.128-11.216-5.668-16.338c1.692-1.795-0.69-5.608-3.363-4.998
				c-18.456,4.215-30.666-28.869-17.302-40.315c0.616-0.528-0.225-1.585-0.897-1.207c-20.098,11.293-3.52,51.804,17.763,47.891
				c1.08,5.339,3.216,10.686,5.184,15.593C580.234,478.931,584.396,478.921,583.59,475.994z"/>
			<path style="fill:#2B2A2A;" d="M528.14,428.732c-15.573,3.1-31.151,6.168-46.724,9.265c-1.049,0.209-0.266,1.703,0.663,1.541
				c15.722-2.741,31.439-5.51,47.162-8.248C530.947,430.992,529.719,428.417,528.14,428.732z"/>
			<path style="fill:#2B2A2A;" d="M553.753,391.224c-15.537,5.491-26.224,19.294-28.971,35.367
				c-0.172,1.005,1.467,1.447,1.709,0.372c3.424-15.221,14.268-26.88,28.589-32.657C557.051,393.511,555.59,390.575,553.753,391.224
				z"/>
			<path style="fill:#2B2A2A;" d="M622.606,396.097c-13.543-11.948-32.348-16.006-49.661-11.082
				c-0.845,0.24-0.208,1.404,0.536,1.245c17.174-3.647,33.919,0.788,47.294,12.059C622.366,399.66,624.158,397.466,622.606,396.097z
				"/>
			<path style="fill:#2B2A2A;" d="M635.129,390.575c-1.979,0.738-3.916,1.573-5.863,2.391c-1.061,0.446-0.272,2.044,0.719,1.672
				c1.978-0.744,3.96-1.469,5.905-2.293C637.012,391.871,636.18,390.183,635.129,390.575z"/>
			<path style="fill:#2B2A2A;" d="M562.416,466.59c-10.76,0.366-20.728-3.099-27.574-11.76c-0.541-0.685-1.598-0.071-1.068,0.696
				c6.457,9.334,17.547,15.474,29.11,13.969C564.856,469.239,564.203,466.53,562.416,466.59z"/>
			<path style="fill:#2B2A2A;" d="M616.932,663.296c-15.774-57.294-32.385-114.352-48.293-171.608
				c-0.214-0.77-1.589-0.835-1.349,0.044c15.595,57.173,30.486,114.537,46.216,171.675
				C614.046,665.369,617.544,665.52,616.932,663.296z"/>
			<path style="fill:#2B2A2A;" d="M687.638,637.771c-10.826,3.778-21.243,9.431-31.667,14.213c-9.64,4.422-19.538,8.55-28.88,13.576
				c-0.845,0.455,0.068,1.762,0.864,1.487c10.909-3.768,21.503-8.643,32.154-13.083c9.831-4.098,20.185-7.647,29.581-12.661
				C691.699,640.231,689.528,637.111,687.638,637.771z"/>
			<path style="fill:#2B2A2A;" d="M747.929,612.614c-15.192,5.508-30.35,13.153-44.68,20.636c-1.005,0.525,0.081,2.104,1.026,1.766
				c15.281-5.474,31.265-11.441,45.688-18.901C751.956,615.084,749.802,611.935,747.929,612.614z"/>
			<path style="fill:#2B2A2A;" d="M751.5,604.415c-33.063-53.387-71.988-103.331-116.833-147.354
				c-0.677-0.664-1.835,0.299-1.151,1.027c42.957,45.746,81.573,95.136,114.26,148.755
				C749.371,609.46,753.195,607.153,751.5,604.415z"/>
			<path style="fill:#2B2A2A;" d="M626.275,407.832c-0.717-0.664-1.803,0.25-1.175,1.049c8.375,10.642,10.246,24.82,2.744,36.506
				c-1.431,2.229,2.048,4.587,3.457,2.22C638.863,434.908,637.27,418.021,626.275,407.832z"/>
			<path style="fill:#2B2A2A;" d="M685.095,611.871c-11.957-20.619-26.957-39.907-40.433-59.569
				c-14.033-20.476-28.351-40.752-42.677-61.024c-0.692-0.979-2.137-0.105-1.451,0.946c13.294,20.357,26.585,40.717,40.171,60.881
				c13.491,20.021,26.047,41.39,41,60.34C682.978,615.057,686.356,614.045,685.095,611.871z"/>
			<path style="fill:#2B2A2A;" d="M606.305,452.002c-3.912,10.247-7.604,20.546-11.061,30.959c-0.693,2.086,2.804,3.878,3.479,1.687
				c3.26-10.586,6.261-21.216,9.058-31.93C608.006,451.857,606.668,451.051,606.305,452.002z"/>
			<path style="fill:#2B2A2A;" d="M599.771,484.821c-0.213-0.338-0.382-0.594-0.708-0.837c-0.515-0.383-1.292-0.447-1.663,0.173
				c-0.381,0.636,0.046,1.281,0.594,1.622c0.333,0.207,0.628,0.253,1.006,0.321C599.806,486.245,600.166,485.447,599.771,484.821z"
				/>
			<path style="fill:#2B2A2A;" d="M576.031,421.591c-15.584,2.372-31.151,21.883-14.789,34.311c1.785,1.356,3.522-0.838,1.955-2.371
				c-12.559-12.289,1.716-27.26,14.87-28.956c13.125-1.692,36.896,5.761,29.243,23.556c-0.577,1.342,1.519,2.373,2.264,1.098
				C621.456,428.909,590.513,419.387,576.031,421.591z"/>
			<path style="fill:#2B2A2A;" d="M575.094,424.343c-20.635,3.982-27.558,30.385,0.707,34.625l58.297,179.836l51.23-22.965
				L597.4,484.157l8.905-32.156c0,0,6.947-7.874,3.414-15.293C606.186,429.289,595.233,420.456,575.094,424.343z"/>
		</g>
	</g>
</g>
</svg>
