<?xml version="1.0" encoding="utf-8"?>
<!-- Generator: Adobe Illustrator 27.5.0, SVG Export Plug-In . SVG Version: 6.00 Build 0)  -->
<svg version="1.1" xmlns="http://www.w3.org/2000/svg" xmlns:xlink="http://www.w3.org/1999/xlink" x="0px" y="0px"
	 viewBox="0 0 500 500" style="enable-background:new 0 0 500 500;" xml:space="preserve">

<g id="OBJECTS">
	<path style="fill:#F6E8FF;" d="M114.193,413.455c48.771,34.764,162.887,109.941,265.963,12.793s44.544-247.622-21.097-307.492
		c-54.309-49.535-200.223-75.789-264.203-2.302c-52.952,60.82-15.22,87.064-35.068,166.456
		C49.17,325.387,73.257,384.276,114.193,413.455z"/>
	<g>
		<path style="fill:none;stroke:#69284F;stroke-linecap:round;stroke-miterlimit:10;" d="M69.643,298.721
			c0,3.97,3.218,7.188,7.188,7.188c3.97,0,7.188-3.218,7.188-7.188c0-3.97-3.218-7.188-7.188-7.188
			C72.861,291.533,69.643,294.751,69.643,298.721z"/>
		<g>
			<path style="fill:#FFFFFF;" d="M146.42,117.154c0,2.283-1.851,4.133-4.133,4.133c-2.283,0-4.134-1.851-4.134-4.133
				s1.851-4.134,4.134-4.134C144.57,113.021,146.42,114.871,146.42,117.154z"/>
			<path style="fill:#57B6BD;" d="M90.666,191.038c0,0.769-0.624,1.393-1.393,1.393c-0.769,0-1.393-0.624-1.393-1.393
				c0-0.769,0.624-1.393,1.393-1.393C90.043,189.645,90.666,190.268,90.666,191.038z"/>
			<path style="fill:none;stroke:#69284F;stroke-linecap:round;stroke-miterlimit:10;" d="M424.755,396.691
				c0,2.358,1.911,4.269,4.269,4.269c2.358,0,4.269-1.911,4.269-4.269c0-2.358-1.911-4.269-4.269-4.269
				C426.666,392.422,424.755,394.334,424.755,396.691z"/>
			<path style="fill:#AD50E6;" d="M350.259,178.164c0,2.283-1.851,4.133-4.133,4.133s-4.134-1.851-4.134-4.133
				c0-2.283,1.851-4.134,4.134-4.134S350.259,175.881,350.259,178.164z"/>
			<circle style="fill:#57B6BD;" cx="385.194" cy="316.263" r="2.794"/>
			<path style="fill:#57B6BD;" d="M57.988,439.839c0,0.769-0.624,1.393-1.393,1.393s-1.393-0.624-1.393-1.393
				c0-0.769,0.624-1.393,1.393-1.393S57.988,439.069,57.988,439.839z"/>
			<path style="fill:#57B6BD;" d="M163.022,83.2c0,0.769-0.624,1.393-1.393,1.393c-0.769,0-1.393-0.624-1.393-1.393
				c0-0.769,0.624-1.393,1.393-1.393C162.398,81.807,163.022,82.43,163.022,83.2z"/>
			<path style="fill:#AD50E6;" d="M65.046,392.405c0,2.283-1.851,4.134-4.134,4.134c-2.283,0-4.133-1.851-4.133-4.134
				s1.851-4.133,4.133-4.133C63.195,388.272,65.046,390.123,65.046,392.405z"/>
			<path style="fill:#57B6BD;" d="M377.534,96.424c1.301-0.538,2.697,0.534,2.513,1.93l-0.382,2.894l-0.382,2.894
				c-0.184,1.396-1.811,2.069-2.928,1.211l-2.315-1.778l-2.315-1.778c-1.117-0.858-0.886-2.603,0.415-3.141l2.697-1.116
				L377.534,96.424z"/>
			<path style="fill:#57B6BD;" d="M133.63,170.103c1.301-0.538,2.697,0.534,2.513,1.93l-0.382,2.894l-0.382,2.893
				c-0.184,1.396-1.811,2.069-2.928,1.211l-2.315-1.778l-2.315-1.778c-1.117-0.858-0.886-2.603,0.415-3.141l2.697-1.116
				L133.63,170.103z"/>
			<g>
				
					<line style="fill:none;stroke:#69284F;stroke-linecap:round;stroke-miterlimit:10;" x1="75.92" y1="126.264" x2="75.92" y2="136.47"/>
				
					<line style="fill:none;stroke:#69284F;stroke-linecap:round;stroke-miterlimit:10;" x1="81.097" y1="131.635" x2="70.89" y2="131.635"/>
			</g>
			<g>
				
					<line style="fill:none;stroke:#69284F;stroke-linecap:round;stroke-miterlimit:10;" x1="399.426" y1="235.604" x2="399.426" y2="245.811"/>
				
					<line style="fill:none;stroke:#69284F;stroke-linecap:round;stroke-miterlimit:10;" x1="404.602" y1="240.975" x2="394.395" y2="240.975"/>
			</g>
		</g>
	</g>
	<g>
		<defs>
			<rect id="SVGID_1_" width="500" height="500"/>
		</defs>
		<clipPath id="SVGID_00000179630826012697602900000011353237349519062160_">
			<use xlink:href="#SVGID_1_"  style="overflow:visible;"/>
		</clipPath>
		<g style="clip-path:url(#SVGID_00000179630826012697602900000011353237349519062160_);">
			<g>
				<path style="fill:#FF8D63;" d="M156.402,224.244c0,0-65.683,15.677-36.901,131.894
					C136.06,422.996,212.826,270.167,156.402,224.244z"/>
				<path style="fill:#AD50E6;" d="M217.003,206.104c0.439,0.415-106.674-20.057-113.48,105.085c0,0,46.892-7.257,82.11-22.69
					L217.003,206.104z"/>
				<path style="fill:#FF8D63;" d="M224.694,181.912c0,0,3.603,23.495-11.667,25.12c0,0,25.909,24.195,57.114,1.916
					c0,0-14.605-9.514-12.171-24.367L224.694,181.912z"/>
				<path style="fill:#AD50E6;" d="M318.102,291.884c-67.195-7.197-126.033-2.079-152.982,1.219
					c0.4-19.453-1.38-43.723-8.717-69.514c0,0,16.8-12.219,60.584-17.537c0,0,16.224,7.009,49.933,0.63
					c0,0,46.664,4.263,55.065,15.464C321.984,222.147,317.482,254.937,318.102,291.884z"/>
				<path style="fill:#FF8D63;" d="M325.466,225.216c0,0,65.683,15.677,36.9,131.894
					C345.808,423.968,269.042,271.139,325.466,225.216z"/>
				<path style="fill:#AD50E6;" d="M267.155,206.446c-1.083,1.22,104.233-19.238,111.189,105.715c0,0-46.892-7.257-82.11-22.69
					L267.155,206.446z"/>
				<g>
					<defs>
						<path id="SVGID_00000113316087836363818000000003524949377097203355_" d="M112.188,262.974c0,0,17.504-41.928,49.255-49.662
							c0,0,102.081,12.775,166.397,3.412c0,0,29.038,12.273,41.657,50.13C369.497,266.854,184.646,305.715,112.188,262.974z"/>
					</defs>
					<clipPath id="SVGID_00000066492781091691358420000005476844323728531853_">
						<use xlink:href="#SVGID_00000113316087836363818000000003524949377097203355_"  style="overflow:visible;"/>
					</clipPath>
					
						<path style="clip-path:url(#SVGID_00000066492781091691358420000005476844323728531853_);fill:none;stroke:#FFFFFF;stroke-linecap:round;stroke-miterlimit:10;" d="
						M122.696,219.144c0,0,102.962,33.244,240.382-3.401"/>
					
						<path style="clip-path:url(#SVGID_00000066492781091691358420000005476844323728531853_);fill:none;stroke:#FFFFFF;stroke-linecap:round;stroke-miterlimit:10;" d="
						M109.749,248.144c0,0,119.78,33.244,279.647-3.401"/>
				</g>
				<path style="fill:#69284F;" d="M200.512,163.189c0,0-10.902-9.792-7.484-21.513c3.419-11.721,11.879-9.987,11.879-9.987
					s0.733-6.837,6.105-8.302c5.372-1.465,9.768,3.174,9.768,3.174s9.279-21.733,28.57-21.244
					c19.291,0.488,19.779,19.535,19.779,19.535s5.372-3.663,9.279-0.733c3.907,2.93-0.977,9.035-0.977,9.035
					s17.093,13.674-0.733,27.105C276.699,160.258,233.478,188.096,200.512,163.189z"/>
				<path style="fill:#57B6BD;" d="M147.216,396.005c0,0-27.417,82.876-24.925,150.173c0,0,38.011,26.794,109.67,16.201
					c0,0,68.78,9.778,121.179-13.511c0,0-7.486-103.968-32.438-159.695L147.216,396.005z"/>
				<path style="fill:#FF8D63;" d="M266.275,168.802c0,18.532-11.602,33.551-25.937,33.551c-14.323,0-25.96-15.019-25.96-33.551
					c0-1.378,0.08-2.733,0.217-4.063c0.004-0.046,0.008-6.524,0.013-6.57c0.79-8.267,6.723-14.991,14.422-16.953
					c8.07-2.056,18-2.214,29.018,2.635c3.613,1.59,6.243,4.962,7.159,8.957l0.015,0.068
					C265.921,155.872,266.275,165.493,266.275,168.802z"/>
				<path style="fill:#69284F;" d="M253.721,160.2c-0.192,1.243-2.213,1.917-4.514,1.506c-2.301-0.411-4.011-1.751-3.819-2.994
					c0.192-1.243,2.213-1.917,4.514-1.505C252.203,157.617,253.913,158.958,253.721,160.2z"/>
				<path style="fill:#69284F;" d="M230.962,157.742c0.519,1.148-0.772,2.884-2.883,3.877c-2.111,0.994-4.243,0.869-4.761-0.279
					c-0.519-1.147,0.772-2.883,2.883-3.877C228.311,156.469,230.443,156.594,230.962,157.742z"/>
				<path style="fill:#69284F;" d="M227.835,198.061c0,0,12.891,8.682,26.313-0.874c0,0-5.023,12.701-14.012,11.539
					C231.147,207.564,227.835,198.061,227.835,198.061z"/>
				<path style="fill:none;stroke:#69284F;stroke-linecap:round;stroke-miterlimit:10;" d="M238.061,176.136
					c0,0,0.577,5.469-1.133,8.598c-0.34,0.622-0.189,1.411,0.396,1.811c0.729,0.499,2.014,0.862,4.207,0.235"/>
				<ellipse style="fill:#69284F;" cx="227.12" cy="173.464" rx="1.996" ry="3.447"/>
				<path style="fill:#69284F;" d="M247.623,172.392c0,1.904,0.894,3.447,1.996,3.447c1.102,0,1.996-1.543,1.996-3.447
					c0-1.904-0.893-3.447-1.996-3.447C248.516,168.945,247.623,170.488,247.623,172.392z"/>
				<path style="fill:#69284F;" d="M224.073,155.611c5.991,0.809,8.663,2.712,13.435-12.025c0,0,3.543,4.299,8.636,9.158
					c6.509,6.209,16.554-1.046,20.46,14.519c0,0,8.91-22.23-4.929-31.938c-10.284-7.214-47.585,2.592-53.082,16.154
					c-1.539,3.798-0.243,11.489,6.907,12.479C221.722,164.819,219.053,154.933,224.073,155.611z"/>
				<path style="fill:#AD50E6;" d="M338.054,413.738c0,0-121.854,33.467-196.386-9.376l18.293-66.955c0,0,3.099-11.795,4.518-30.708
					c0.32-4.198,0.56-8.757,0.64-13.595c26.95-3.299,85.788-8.417,152.982-1.219c0.12,7.517,0.56,15.174,1.46,22.732
					c1.08,9.276,2.859,18.373,5.558,26.81L338.054,413.738z"/>
				<g>
					<path style="fill:#FF8D63;" d="M261.79,168.077c-2.307,6.083-0.19,12.676,4.728,14.726c4.918,2.05,10.774-1.218,13.081-7.301
						c2.307-6.083,0.189-12.676-4.729-14.726C269.953,158.726,264.096,161.995,261.79,168.077z"/>
					<path style="fill:none;stroke:#69284F;stroke-linecap:round;stroke-miterlimit:10;" d="M275.483,167.459
						c0,0-5.924-2.842-8.033,3.93"/>
				</g>
				<g>
					<path style="fill:#FF8D63;" d="M216.918,168.077c2.307,6.083,0.189,12.676-4.728,14.726c-4.918,2.05-10.774-1.218-13.081-7.301
						c-2.307-6.083-0.189-12.676,4.729-14.726C208.756,158.726,214.612,161.995,216.918,168.077z"/>
					<path style="fill:none;stroke:#69284F;stroke-linecap:round;stroke-miterlimit:10;" d="M203.225,167.459
						c0,0,5.924-2.842,8.033,3.93"/>
				</g>
				<g>
					<path style="fill:#FF8D63;" d="M212.012,274.151c0,0-91.423,23.315-93.422,70.462c-1.998,47.147,66.444,73.052,122.897-39.376
						l-0.795-87.765c-0.081-3.719-3.515-6.571-6.949-5.495c-1.736,0.544-3.287,2.006-3.91,5.238
						c-1.745,9.049-3.84,9.593-7.912,19.849C217.85,247.321,209.956,263.277,212.012,274.151z"/>
					<path style="fill:none;stroke:#69284F;stroke-linecap:round;stroke-miterlimit:10;" d="M133.159,316.924
						c0,0,9.211-10.485,17.074-15.61"/>
					<path style="fill:none;stroke:#69284F;stroke-linecap:round;stroke-miterlimit:10;" d="M239.74,221.887
						c0,0-5.323-3.681-7.32,5.751c-1.996,9.431-3.327,17.712-5.323,21.393"/>
					<path style="fill:#FF8D63;" d="M269.856,275.124c0,0,91.423,23.315,93.422,70.462c1.998,47.147-66.444,73.052-122.897-39.376
						l0.164-89.19c0.081-3.719,3.515-6.571,6.949-5.495c1.736,0.544,3.287,2.006,3.91,5.238c1.745,9.049,4.471,11.017,8.543,21.273
						C264.018,248.293,271.912,264.249,269.856,275.124z"/>
					<path style="fill:none;stroke:#69284F;stroke-linecap:round;stroke-miterlimit:10;" d="M348.709,317.896
						c0,0-9.211-10.485-17.074-15.61"/>
					<path style="fill:none;stroke:#69284F;stroke-linecap:round;stroke-miterlimit:10;" d="M242.128,222.86
						c0,0,5.323-3.681,7.32,5.751c1.996,9.431,3.327,17.712,5.323,21.393"/>
					<path style="fill:none;stroke:#69284F;stroke-linecap:round;stroke-miterlimit:10;" d="M240.716,214.635
						c0,0,1.74,88.203,0.771,90.602"/>
				</g>
				<path style="fill:none;stroke:#69284F;stroke-linecap:round;stroke-miterlimit:10;" d="M160.729,274.407
					c0,0-0.756,11.588,0.756,18.894"/>
				<path style="fill:none;stroke:#69284F;stroke-linecap:round;stroke-miterlimit:10;" d="M315.154,276.422
					c0,0,0.504,7.557-0.756,14.863"/>
				
					<line style="fill:none;stroke:#69284F;stroke-linecap:round;stroke-miterlimit:10;" x1="236.068" y1="483.923" x2="231.961" y2="562.38"/>
				<circle style="fill:none;stroke:#69284F;stroke-linecap:round;stroke-miterlimit:10;" cx="225.091" cy="433.163" r="2.572"/>
				<circle style="fill:none;stroke:#69284F;stroke-linecap:round;stroke-miterlimit:10;" cx="246.619" cy="433.163" r="2.572"/>
				
					<line style="fill:none;stroke:#FFFFFF;stroke-linecap:round;stroke-miterlimit:10;" x1="225.303" y1="433.527" x2="220.464" y2="487.428"/>
				
					<line style="fill:none;stroke:#FFFFFF;stroke-linecap:round;stroke-miterlimit:10;" x1="247.022" y1="433.82" x2="247.965" y2="488.833"/>
				<path style="fill:none;stroke:#FFFFFF;stroke-linecap:round;stroke-miterlimit:10;" d="M137.462,431.817
					c0,0,19.821,8.362,35.926-12.388"/>
				<path style="fill:none;stroke:#FFFFFF;stroke-linecap:round;stroke-miterlimit:10;" d="M297.889,423.455
					c0,0,9.601,19.511,37.784,15.485"/>
				<path style="fill:#69284F;" d="M238.901,191.336c0,0.938,0.37,1.699,0.826,1.699c0.456,0,0.827-0.761,0.827-1.699
					c0-0.938-0.37-1.699-0.827-1.699C239.271,189.637,238.901,190.398,238.901,191.336z"/>
				<path style="fill:none;stroke:#69284F;stroke-linecap:round;stroke-miterlimit:10;" d="M211.446,115.845
					c0.569,0,8.115,2.847,9.681,11.959"/>
				<path style="fill:none;stroke:#69284F;stroke-linecap:round;stroke-miterlimit:10;" d="M225.682,110.863
					c0,0-9.254,8.115-2.135,20.501"/>
			</g>
			<g>
				
					<line style="fill:none;stroke:#69284F;stroke-linecap:round;stroke-miterlimit:10;" x1="204.277" y1="222.945" x2="215.254" y2="228.503"/>
				
					<line style="fill:none;stroke:#69284F;stroke-linecap:round;stroke-miterlimit:10;" x1="212.187" y1="212.776" x2="218.069" y2="222.781"/>
				
					<line style="fill:none;stroke:#69284F;stroke-linecap:round;stroke-miterlimit:10;" x1="272.263" y1="245.288" x2="286.682" y2="237.885"/>
			</g>
		</g>
	</g>
</g>
</svg>
